<?xml version="1.0" standalone="no"?>
<!DOCTYPE svg PUBLIC "-//W3C//DTD SVG 20010904//EN"
 "http://www.w3.org/TR/2001/REC-SVG-20010904/DTD/svg10.dtd">
<svg version="1.0" xmlns="http://www.w3.org/2000/svg"
 width="512.000000pt" height="512.000000pt" viewBox="0 0 512.000000 512.000000"
 preserveAspectRatio="xMidYMid meet">
<metadata>
Created by potrace 1.14, written by Peter Selinger 2001-2017
</metadata>
<g transform="translate(0.000000,512.000000) scale(0.100000,-0.100000)"
fill="#000000" stroke="none">
<path d="M1977 3703 c-4 -3 -1 -15 4 -26 14 -26 -3 -37 -56 -36 -22 0 -53 -3
-70 -8 -16 -5 -52 -8 -80 -7 -27 2 -65 1 -83 -2 -28 -4 -31 -7 -18 -19 8 -8
19 -15 24 -15 6 0 12 -7 16 -15 5 -13 -8 -15 -82 -12 -59 2 -93 -1 -107 -10
-12 -7 -31 -11 -43 -8 -36 7 -244 17 -414 20 -125 2 -163 6 -182 19 -22 14
-25 14 -20 1 4 -8 11 -15 16 -15 6 0 8 -9 5 -20 -5 -19 18 -48 29 -37 8 8 61
-16 60 -28 -1 -5 -7 -10 -14 -12 -32 -4 -40 -12 -35 -33 7 -27 -13 -41 -41
-31 -28 11 -46 3 -46 -19 0 -27 -28 -38 -75 -33 -76 9 -226 10 -231 1 -3 -4
-11 -5 -17 -1 -7 4 -7 0 1 -10 16 -19 8 -36 -15 -33 -27 4 -95 -13 -123 -31
-14 -9 -36 -18 -49 -19 -36 -4 -51 -12 -51 -26 0 -9 3 -9 10 2 13 22 62 1 71
-30 l7 -25 1 28 c1 15 -4 27 -11 27 -9 0 -9 3 -1 11 9 9 20 8 45 -1 37 -13 61
-18 128 -24 67 -7 84 -12 88 -24 2 -7 -7 -12 -22 -12 -21 0 -25 -4 -23 -22 2
-20 -3 -23 -33 -24 -52 0 -70 -12 -70 -44 0 -36 -10 -42 -41 -26 -31 16 -109
36 -129 33 -8 -2 -24 -8 -35 -15 -18 -12 -18 -12 5 -5 35 10 88 7 106 -8 8 -6
14 -9 14 -5 0 4 18 -3 40 -14 31 -16 42 -18 45 -8 5 13 34 14 125 3 25 -3 65
-7 90 -9 145 -13 189 -43 73 -49 -13 0 -23 -4 -23 -9 0 -4 -6 -5 -12 -3 -16 6
-29 -4 -46 -34 -11 -19 -11 -25 -1 -32 7 -4 17 -5 21 -3 4 3 8 2 8 -3 0 -17
-16 -28 -40 -30 -42 -1 -175 -17 -235 -27 -27 -5 -103 -15 -165 -21 -14 -2
-27 -4 -30 -5 -7 -3 -23 -7 -37 -8 -6 -1 -15 -11 -18 -22 -5 -14 -15 -20 -38
-20 -18 0 -39 -5 -47 -10 -11 -7 0 -9 35 -6 60 4 95 -7 126 -40 20 -21 21 -27
9 -34 -8 -5 -28 -11 -45 -12 -16 -1 -38 -2 -47 -3 -25 -1 -35 -15 -12 -16 10
-1 34 -2 52 -4 20 -2 35 2 38 10 3 8 25 11 67 9 78 -4 172 -17 172 -24 0 -1
18 -3 40 -5 103 -8 181 -16 204 -20 32 -5 119 -15 186 -21 28 -3 55 -5 62 -6
7 -1 10 -5 7 -10 -3 -4 1 -8 8 -8 8 0 7 -5 -4 -16 -17 -18 -103 -24 -164 -12
-17 3 -38 2 -45 -3 -12 -7 -11 -9 1 -10 8 0 26 -2 40 -4 14 -2 42 -4 63 -6 21
-2 41 -7 43 -11 3 -5 10 -6 15 -3 5 4 16 0 24 -9 17 -17 11 -23 -25 -25 -76
-4 -85 -7 -82 -28 3 -18 -1 -21 -25 -19 -15 2 -33 0 -39 -6 -15 -12 -127 -18
-134 -7 -3 5 -16 10 -28 12 -12 2 -25 6 -28 10 -12 12 -20 8 -21 -13 -2 -17 3
-19 27 -15 19 3 36 -1 51 -15 13 -11 18 -19 12 -20 -7 0 -13 -6 -13 -14 0 -20
-17 -24 -93 -20 -48 3 -77 10 -97 24 -32 22 -62 28 -42 8 19 -19 14 -25 -21
-25 -61 0 -107 -7 -107 -16 0 -5 9 -7 20 -4 28 7 36 -11 14 -29 -18 -14 -17
-15 6 -9 14 4 33 18 43 31 14 18 23 21 40 15 12 -4 49 -9 82 -10 33 -2 77 -4
98 -6 22 -2 54 1 72 6 25 7 43 6 68 -5 33 -13 92 -25 162 -31 252 -23 250 -23
297 -36 24 -6 43 -10 43 -9 0 2 19 -7 42 -19 23 -11 47 -21 53 -21 12 0 32
-15 58 -43 18 -20 88 -57 108 -57 10 0 64 -21 182 -71 12 -5 34 -14 50 -20 72
-29 76 -40 25 -65 -21 -10 -40 -19 -43 -19 -3 -1 -17 -5 -31 -9 -14 -4 -34 -9
-45 -11 -10 -2 -19 -4 -19 -5 0 -2 -67 -12 -97 -13 -15 -1 -29 -5 -33 -8 -10
-11 -83 0 -123 17 -49 21 -89 26 -98 12 -5 -7 -2 -9 7 -6 25 9 59 -9 52 -28
-4 -12 -3 -15 5 -10 22 13 51 15 87 5 34 -10 43 -24 28 -45 -5 -5 2 2 14 15
20 23 28 25 110 24 81 -1 133 -6 189 -17 32 -7 97 -18 114 -20 9 -1 20 -4 25
-7 6 -3 20 -4 33 -3 12 0 22 -1 22 -5 0 -3 10 -6 23 -7 12 0 33 -3 47 -7 14
-3 44 -10 67 -15 23 -5 45 -7 48 -4 3 4 3 -1 0 -10 -9 -23 4 -28 87 -33 116
-7 295 -22 307 -24 2 -1 -3 -8 -10 -18 -8 -9 -15 -28 -15 -42 -1 -14 -5 -37
-8 -51 l-7 -25 15 25 c8 14 15 35 16 48 0 12 5 22 11 22 5 0 8 4 5 9 -3 5 9
12 27 16 17 4 41 10 52 13 28 7 110 6 175 -2 156 -20 200 -28 200 -38 0 -4 10
-12 23 -17 20 -8 157 -23 202 -22 11 0 27 -7 36 -15 13 -12 52 -16 185 -18
174 -3 195 -6 229 -36 11 -10 29 -20 39 -22 31 -5 29 -23 -5 -35 -18 -7 -28
-16 -24 -23 5 -8 10 -7 18 3 23 29 53 29 86 1 17 -14 37 -23 43 -21 10 4 10 6
0 6 -8 1 -26 13 -41 29 -15 15 -37 35 -49 44 -27 22 -28 35 -2 43 11 3 20 11
20 17 0 6 3 8 7 5 3 -4 12 -2 20 4 10 9 10 15 2 25 -9 11 -7 14 12 15 172 4
284 7 330 8 85 2 89 34 11 75 -34 18 -70 23 -187 31 -84 5 -151 13 -185 20
-14 4 -38 9 -55 12 -44 8 -138 44 -153 60 -8 7 -17 11 -22 8 -5 -3 -11 4 -15
15 -4 11 -10 18 -14 16 -4 -3 -7 11 -6 30 1 19 4 35 6 37 101 58 215 85 344
81 103 -4 141 -7 235 -19 30 -4 82 -8 115 -9 36 -1 70 -9 85 -18 14 -9 45 -19
70 -22 25 -3 59 -9 75 -14 17 -5 46 -8 65 -7 37 2 56 -10 62 -41 2 -12 12 -20
28 -21 14 -1 17 1 8 3 -10 3 -15 11 -11 20 4 10 16 12 47 9 33 -5 26 -1 -33
20 -86 29 -91 32 -71 46 15 11 0 9 -65 -7 -13 -4 -33 -3 -42 1 -10 4 -34 9
-54 10 -46 3 -60 11 -52 30 3 8 0 15 -7 15 -6 0 -10 5 -8 11 2 6 6 9 8 8 3 -1
15 3 27 9 14 8 24 9 28 2 10 -16 42 -11 42 6 0 14 -9 15 -53 10 -29 -3 -55 -3
-57 2 -12 18 105 124 133 121 3 0 18 5 34 11 34 13 70 19 151 25 33 2 60 5 60
6 0 1 14 2 31 4 184 16 254 32 254 59 0 17 -34 39 -44 29 -3 -3 -6 -2 -6 3 0
6 -15 11 -32 12 -61 5 -89 9 -95 15 -8 9 43 27 75 27 20 0 23 3 13 9 -8 5 -11
16 -8 24 3 8 -3 24 -14 35 -24 26 -125 86 -170 101 -110 36 -162 50 -170 45
-5 -3 -9 -1 -9 4 0 5 -6 9 -12 10 -22 1 -56 10 -75 20 -26 13 -98 30 -163 38
-30 3 -68 8 -85 10 -52 6 -149 16 -167 15 -18 0 -32 25 -22 40 3 5 1 9 -4 9
-5 0 -12 9 -15 21 -3 11 -11 19 -19 18 -7 -1 -20 0 -28 4 -8 3 -28 9 -45 13
-40 10 -37 9 -60 16 -11 4 -59 18 -107 32 -71 22 -86 30 -85 46 1 17 29 34 50
31 4 -1 7 2 7 6 0 14 107 19 258 11 52 -2 65 0 73 15 10 17 49 23 63 10 11
-11 41 -13 273 -17 208 -3 224 -5 240 -24 18 -19 18 -19 36 0 12 12 14 19 5
17 -31 -4 -36 2 -33 36 4 40 -19 59 -68 58 -25 0 -28 3 -23 23 5 17 1 24 -15
29 -11 4 -18 12 -16 18 2 7 36 12 93 12 49 1 109 5 134 9 44 8 45 8 28 -11
-20 -22 -23 -33 -7 -33 5 0 8 4 5 9 -11 17 47 29 69 15 15 -9 24 -10 35 -3 13
9 12 10 -2 5 -10 -3 -24 1 -32 9 -7 8 -27 17 -42 21 -16 4 -36 16 -46 26 -9
11 -26 20 -37 21 -12 1 -21 5 -21 9 0 4 -12 8 -27 8 -16 0 -35 5 -43 10 -13 8
-12 11 5 24 16 12 17 15 5 19 -40 13 -70 18 -130 22 -198 14 -216 18 -191 48
16 20 -4 34 -47 34 -41 0 -45 4 -33 36 9 24 7 27 -24 37 -35 11 -47 26 -22 27
6 0 30 3 52 7 41 7 58 22 50 44 -5 15 18 16 64 2 21 -6 40 -6 50 0 12 7 9 9
-16 10 -32 0 -45 14 -21 22 7 3 6 7 -5 11 -9 3 -17 3 -17 -1 0 -9 -107 -8
-210 2 -36 3 -114 8 -175 11 -60 3 -141 8 -180 11 -98 7 -156 7 -185 0 -15 -3
-34 1 -50 11 -14 10 -29 16 -33 15 -4 -1 -17 4 -28 12 -20 13 -59 11 -59 -3 0
-4 -8 -9 -17 -10 -36 -5 -210 -3 -293 3 -47 3 -116 8 -155 11 -79 5 -163 12
-245 20 -30 3 -82 7 -115 10 -33 3 -74 7 -91 9 -17 3 -42 -1 -56 -8 -13 -7
-33 -11 -44 -9 -10 2 -32 5 -49 7 -75 9 -132 17 -160 21 -57 9 -173 14 -178 8z"/>
<path d="M1580 3642 c0 -11 -9 -13 -42 -9 -24 3 -35 3 -25 0 11 -3 16 -11 13
-19 -4 -11 2 -11 34 2 30 12 43 13 60 4 26 -14 38 -6 21 14 -17 21 -61 27 -61
8z"/>
<path d="M191 3244 c-20 -24 -7 -27 19 -4 14 13 18 20 9 20 -8 -1 -20 -8 -28
-16z"/>
<path d="M4864 3142 c-7 -4 1 -13 22 -24 23 -12 35 -14 40 -6 4 6 3 8 -2 5 -6
-3 -16 -1 -24 4 -13 8 -13 10 0 19 12 8 12 10 -5 10 -11 0 -25 -4 -31 -8z"/>
<path d="M4958 3143 c7 -3 16 -2 19 1 4 3 -2 6 -13 5 -11 0 -14 -3 -6 -6z"/>
<path d="M4990 3146 c0 -2 7 -7 16 -10 8 -3 12 -2 9 4 -6 10 -25 14 -25 6z"/>
<path d="M4684 2978 c-3 -4 15 -6 38 -4 26 2 53 -3 68 -12 l25 -16 -23 23
c-17 16 -32 21 -63 19 -22 -1 -42 -5 -45 -10z"/>
<path d="M4650 2970 c0 -5 5 -10 10 -10 6 0 10 5 10 10 0 6 -4 10 -10 10 -5 0
-10 -4 -10 -10z"/>
<path d="M4920 2431 c-24 -7 -22 -12 10 -23 11 -4 16 0 16 13 0 11 0 19 -1 18
0 -1 -11 -4 -25 -8z"/>
<path d="M278 2343 c7 -3 16 -2 19 1 4 3 -2 6 -13 5 -11 0 -14 -3 -6 -6z"/>
<path d="M4430 2099 c0 -5 5 -7 10 -4 6 3 10 8 10 11 0 2 -4 4 -10 4 -5 0 -10
-5 -10 -11z"/>
<path d="M1225 1880 c-5 -8 55 -3 63 4 2 3 -10 4 -27 4 -18 -1 -34 -4 -36 -8z"/>
<path d="M2440 1620 c-13 -8 -12 -10 3 -10 9 0 17 5 17 10 0 12 -1 12 -20 0z"/>
<path d="M2480 1620 c-13 -8 -12 -10 3 -10 9 0 17 5 17 10 0 12 -1 12 -20 0z"/>
<path d="M2380 1598 c-11 -12 -20 -26 -20 -31 0 -5 9 2 21 17 11 14 25 24 30
21 5 -4 9 -1 9 4 0 18 -18 13 -40 -11z"/>
<path d="M3873 1466 c9 -7 17 -18 17 -24 0 -9 29 -26 36 -20 6 6 -32 44 -51
51 -19 7 -19 6 -2 -7z"/>
<path d="M3918 1463 c7 -3 16 -2 19 1 4 3 -2 6 -13 5 -11 0 -14 -3 -6 -6z"/>
<path d="M3950 1466 c0 -3 9 -10 20 -16 11 -6 20 -8 20 -6 0 3 -9 10 -20 16
-11 6 -20 8 -20 6z"/>
</g>
</svg>
